# xmcd
#
# Track frame offsets: 
#        150
#        12334
#        26983
#        39825
#        52569
#        65880
#        77930
#        91057
#        103700
#        114243
#        127339
#        140256
#        154284
#        168080
#        179604
#        192758
#        203251
#        215857
#        230989
#        242667
#        254464
#        277248
#        297334
#        310556
#
# Disc length: 4471 seconds
#
# Revision: 0
# Processed by: cddbd v1.5.2PL0 Copyright (c) Steve Scherf et al.
# Submitted via: ExactAudioCopy v0.95b4
#
DISCID=5d117518
DTITLE=Ray Charles - The Way I Feel 3 [I Got A Woman]
DYEAR=2007
DGENRE=Blues
TTITLE0=Mess Around
TTITLE1=Funny [But I Still Love You]
TTITLE2=Feelin' Sad
TTITLE3=I Wonder Who?
TTITLE4=Don't You Know?
TTITLE5=Nobody Cares
TTITLE6=Ray's Blues
TTITLE7=I Got A Break, Baby
TTITLE8=Blackjack
TTITLE9=I Got A Woman
TTITLE10=Greenbacks
TTITLE11=Come Back Baby
TTITLE12=A Fool For You
TTITLE13=This Little Girl Of Mine
TTITLE14=Hard Times [No One Knows Better Than I]
TTITLE15=Blues Hangover
TTITLE16=Mary Ann
TTITLE17=Drown In My Own Tears
TTITLE18=Hallelujah, I Love Her So
TTITLE19=What Would I Do Without You?
TTITLE20=Dawn Ray
TTITLE21=The Man I Love
TTITLE22=Music, Music, Music
TTITLE23=Black Coffee
EXTD=
EXTT0=
EXTT1=
EXTT2=
EXTT3=
EXTT4=
EXTT5=
EXTT6=
EXTT7=
EXTT8=
EXTT9=
EXTT10=
EXTT11=
EXTT12=
EXTT13=
EXTT14=
EXTT15=
EXTT16=
EXTT17=
EXTT18=
EXTT19=
EXTT20=
EXTT21=
EXTT22=
EXTT23=
PLAYORDER=
